<svg xmlns="http://www.w3.org/2000/svg" width="18" height="18" fill="none" viewBox="0 0 18 18">
    <path fill="url(#paint0_linear)" d="M4.908 13.466c-.961 0-1.74-.753-1.74-1.673H1.561C1.56 13.562 3.064 15 4.908 15c1.847 0 3.347-1.438 3.347-3.207H6.647c.004.92-.778 1.673-1.74 1.673z"/>
    <path fill="url(#paint1_linear)" d="M4.908 10.496c2.158 0 3.915-1.68 3.915-3.745C8.823 4.684 7.066 3 4.908 3 2.75 3 1 4.684 1 6.751c0 2.068 1.754 3.745 3.908 3.745zm0-5.956c1.275 0 2.308.99 2.308 2.211 0 1.215-1.033 2.211-2.308 2.211-1.268 0-2.308-.996-2.308-2.21 0-1.223 1.04-2.212 2.308-2.212z"/>
    <path fill="url(#paint2_linear)" d="M4.909 7.618c.45 0 .807-.346.807-.774 0-.329-.214-.62-.54-.726v-.56h-.539v.557c-.321.106-.54.397-.54.726.004.43.369.777.812.777z"/>
    <path fill="url(#paint3_linear)" d="M11.559 6.998c-.14-.243-.207-.517-.207-.79 0-.922.782-1.668 1.74-1.668.96 0 1.739.75 1.739 1.667 0 .274-.071.548-.207.79.518.168.99.422 1.404.743.268-.468.41-.996.41-1.533 0-1.77-1.503-3.207-3.347-3.207-1.846 0-3.347 1.438-3.347 3.207 0 .537.14 1.065.41 1.533.415-.321.887-.575 1.405-.742z"/>
    <path fill="url(#paint4_linear)" d="M13.092 10.496c-.45 0-.807.349-.807.773 0 .332.214.623.54.733v.56h.539v-.56c.321-.107.54-.397.54-.733-.004-.424-.369-.773-.812-.773z"/>
    <path fill="url(#paint5_linear)" d="M13.093 7.504c-2.158 0-3.915 1.68-3.915 3.752 0 2.067 1.757 3.744 3.915 3.744C15.25 15 17 13.32 17 11.256c0-2.074-1.75-3.752-3.908-3.752zm0 5.956c-1.275 0-2.308-.99-2.308-2.208 0-1.222 1.033-2.21 2.308-2.21s2.308.988 2.308 2.21c0 1.219-1.033 2.208-2.308 2.208z"/>
    <defs>
        <linearGradient id="paint0_linear" x1="5.164" x2="5.061" y1="15" y2="11.805" gradientUnits="userSpaceOnUse">
            <stop stop-color="#D2AD33"/>
            <stop offset="1" stop-color="#FDDE7B"/>
        </linearGradient>
        <linearGradient id="paint1_linear" x1="5.211" x2="4.732" y1="10.496" y2="3.052" gradientUnits="userSpaceOnUse">
            <stop stop-color="#D2AD33"/>
            <stop offset="1" stop-color="#FDDE7B"/>
        </linearGradient>
        <linearGradient id="paint2_linear" x1="4.969" x2="4.794" y1="7.618" y2="5.578" gradientUnits="userSpaceOnUse">
            <stop stop-color="#D2AD33"/>
            <stop offset="1" stop-color="#FDDE7B"/>
        </linearGradient>
        <linearGradient id="paint3_linear" x1="13.348" x2="13.123" y1="7.74" y2="3.024" gradientUnits="userSpaceOnUse">
            <stop stop-color="#D2AD33"/>
            <stop offset="1" stop-color="#FDDE7B"/>
        </linearGradient>
        <linearGradient id="paint4_linear" x1="13.156" x2="12.981" y1="12.563" y2="10.517" gradientUnits="userSpaceOnUse">
            <stop stop-color="#D2AD33"/>
            <stop offset="1" stop-color="#FDDE7B"/>
        </linearGradient>
        <linearGradient id="paint5_linear" x1="13.389" x2="12.91" y1="15" y2="7.556" gradientUnits="userSpaceOnUse">
            <stop stop-color="#D2AD33"/>
            <stop offset="1" stop-color="#FDDE7B"/>
        </linearGradient>
    </defs>
</svg>
